<svg class="animation__image" data-name="Layer 1" xmlns="http://www.w3.org/2000/svg"
    xmlns:xlink="http://www.w3.org/1999/xlink" viewBox="0 0 847.67 793.71">
    <defs>
        <linearGradient id="a7af66a1-65ce-4b6b-92ab-ce5ff293acf9" x1="577.94" y1="588.56" x2="577.94" y2="437.96"
            gradientUnits="userSpaceOnUse">
            <stop offset="0" stop-color="gray" stop-opacity="0.25" />
            <stop offset="0.54" stop-color="gray" stop-opacity="0.12" />
            <stop offset="1" stop-color="gray" stop-opacity="0.1" />
        </linearGradient>
        <linearGradient id="4ad728e1-26f6-4080-b283-a44263a5b712" x1="906.01" y1="411.2" x2="906.01" y2="57.23"
            xlink:href="#a7af66a1-65ce-4b6b-92ab-ce5ff293acf9" />
        <linearGradient id="c3191295-b08a-4f4e-b745-812fb6038ef8" x1="293.99" y1="407.12" x2="293.99" y2="53.14"
            xlink:href="#a7af66a1-65ce-4b6b-92ab-ce5ff293acf9" />
        <linearGradient id="42a256bb-64a7-471a-b483-4a129225c84c" x1="377.23" y1="465.29" x2="377.23" y2="465.18"
            xlink:href="#a7af66a1-65ce-4b6b-92ab-ce5ff293acf9" />
        <linearGradient id="96e8ce11-4009-4799-afeb-115614a05bf0" x1="613.47" y1="801.09" x2="613.47" y2="219.69"
            xlink:href="#a7af66a1-65ce-4b6b-92ab-ce5ff293acf9" />
    </defs>
    <g id="exterior">
        <path
            d="M584.42,147.83c-3.38,0-7.13,0-9.7.2a11.8,11.8,0,0,0-3.36.69L554,155c14,.35,28.64.24,43,.13l80.57-.62c8.22-.06,16.85-.14,23.71-.63,4.59-.33,8-.81,12.2-1.19,15.25-1.36,37.49-1.1,57.35-1s43.84-.45,50.83-2.44l-42.63,0c-4.6,0-9.42,0-13.48-.23-4.74-.27-7.64-.8-11.81-1.16-6.9-.59-16.42-.66-25.27-.7C679.88,146.94,631.89,148.08,584.42,147.83Z"
            transform="translate(-176.17 -53.14)" fill="#f4f4f4" />
        <path
            d="M224,588.56s35.89-163,142.54-120,251.24,20.51,266.62,11.28,205.09-88.19,261.49-2.05,31.79,110.75,31.79,110.75Z"
            transform="translate(-176.17 -53.14)" fill="url(#a7af66a1-65ce-4b6b-92ab-ce5ff293acf9)" />
        <path d="M232.83,586.69s35-159,139-117,245,20,260,11,200-86,255-2,31,108,31,108Z"
            transform="translate(-176.17 -53.14)" fill="#f50057" />
        <path d="M309.83,596.69s41-133.62,75-90.39,152,23.58,174,21.62,304,68.78,304,68.78Z"
            transform="translate(-176.17 -53.14)" fill="#f0e4e4" />
        <path
            d="M1018.26,262.76a80.13,80.13,0,0,0-2.69-64.79c-7.4-14.77-19.32-27-25.8-42.23-3.76-8.82-5.57-18.33-8.6-27.42A107.55,107.55,0,0,0,923.34,64.8c-13.27-5.86-28-9-42.4-7-23.27,3.23-42.78,19.2-58.33,36.81-22.61,25.6-40.32,59.76-32.58,93,5.22,22.45,21.32,41.16,26.73,63.56,7,29-4.83,59.54-1.05,89.14,3.49,27.35,21.43,51.82,45.57,64.74,27.62,14.78,66.05-.74,93.58-10.38,11.83-4.15,24.33-9.68,30.4-20.66,8-14.54,1.85-32.62,3.79-49.12C991.73,302.05,1009.69,284.16,1018.26,262.76Z"
            transform="translate(-176.17 -53.14)" fill="url(#4ad728e1-26f6-4080-b283-a44263a5b712)" />
        <path
            d="M377.75,151.65c-3.76-8.82-5.57-18.33-8.6-27.42a107.55,107.55,0,0,0-57.83-63.52c-13.27-5.86-28-9-42.4-7-23.27,3.23-42.78,19.2-58.33,36.81-22.61,25.6-40.32,59.76-32.58,93,5.22,22.45,21.32,41.16,26.73,63.56,7,29-4.83,59.54-1.05,89.14,3.49,27.35,21.43,51.82,45.57,64.74,27.62,14.78,66.05-.74,93.58-10.38,11.83-4.15,24.33-9.68,30.4-20.66,8-14.54,1.85-32.62,3.79-49.12,2.69-22.9,20.64-40.79,29.22-62.19a80.13,80.13,0,0,0-2.69-64.79C396.16,179.11,384.24,166.85,377.75,151.65Z"
            transform="translate(-176.17 -53.14)" fill="url(#c3191295-b08a-4f4e-b745-812fb6038ef8)" />
        <path
            d="M811.12,338.06c-3.7-29,7.89-58.85,1-87.24-5.3-21.93-21-40.24-26.16-62.21-7.58-32.56,9.76-66,31.89-91,15.22-17.23,34.32-32.87,57.09-36,14.06-2,28.51,1.09,41.49,6.82a105.27,105.27,0,0,1,56.6,62.17c3,8.9,4.73,18.21,8.42,26.84,6.35,14.87,18,26.87,25.25,41.33a78.42,78.42,0,0,1,2.63,63.41c-8.39,20.94-26,38.46-28.6,60.87-1.89,16.15,4.17,33.84-3.7,48.07-5.94,10.74-18.17,16.16-29.75,20.22-26.94,9.44-64.56,24.63-91.59,10.16C832.09,388.78,814.54,364.83,811.12,338.06Z"
            transform="translate(-176.17 -53.14)" fill="#f50057" />
        <path d="M886.68,358.67s39.66-16,44.66-25,12-62,12-62" transform="translate(-176.17 -53.14)" fill="none"
            stroke="#333" stroke-miterlimit="10" stroke-width="3" />
        <line x1="710.17" y1="550.55" x2="710.17" y2="205.55" fill="none" stroke="#333" stroke-miterlimit="10"
            stroke-width="3" />
        <path
            d="M212.12,334.06c-3.7-29,7.89-58.85,1-87.24-5.3-21.93-21-40.24-26.16-62.21-7.58-32.56,9.76-66,31.89-91,15.22-17.23,34.32-32.87,57.09-36,14.06-2,28.51,1.09,41.49,6.82a105.27,105.27,0,0,1,56.6,62.17c3,8.9,4.73,18.21,8.42,26.84,6.35,14.87,18,26.87,25.25,41.33a78.42,78.42,0,0,1,2.63,63.41c-8.39,20.94-26,38.46-28.6,60.87-1.89,16.15,4.17,33.84-3.7,48.07-5.94,10.74-18.17,16.16-29.75,20.22-26.94,9.44-64.56,24.63-91.59,10.16C233.09,384.78,215.54,360.83,212.12,334.06Z"
            transform="translate(-176.17 -53.14)" fill="#f50057" />
        <path
            d="M212.12,334.06c-3.7-29,7.89-58.85,1-87.24-5.3-21.93-21-40.24-26.16-62.21-7.58-32.56,9.76-66,31.89-91,15.22-17.23,34.32-32.87,57.09-36,14.06-2,28.51,1.09,41.49,6.82a105.27,105.27,0,0,1,56.6,62.17c3,8.9,4.73,18.21,8.42,26.84,6.35,14.87,18,26.87,25.25,41.33a78.42,78.42,0,0,1,2.63,63.41c-8.39,20.94-26,38.46-28.6,60.87-1.89,16.15,4.17,33.84-3.7,48.07-5.94,10.74-18.17,16.16-29.75,20.22-26.94,9.44-64.56,24.63-91.59,10.16C233.09,384.78,215.54,360.83,212.12,334.06Z"
            transform="translate(-176.17 -53.14)" opacity="0.2" />
        <path d="M287.68,354.67s39.66-16,44.66-25,12-62,12-62" transform="translate(-176.17 -53.14)" fill="none"
            stroke="#333" stroke-miterlimit="10" stroke-width="3" />
        <line x1="111.17" y1="546.55" x2="111.17" y2="201.55" fill="none" stroke="#333" stroke-miterlimit="10"
            stroke-width="3" />
        <path
            d="M338.87,720.59c12.31.81,25.32,5.08,36.52-.09,2.89-1.33,5.51-3.25,8.51-4.32,6.89-2.46,14.46-.07,21.4,2.23a948.63,948.63,0,0,0,166.86,38.93c11.68,1.63,23.87,3,35-.8,8.14-2.77,15.19-8.12,23.25-11.12,13.18-4.89,27.74-3.07,41.77-2.3a267.56,267.56,0,0,0,108-16.45L782,726a54.6,54.6,0,0,1,52.09,7,127.79,127.79,0,0,0,18.58,11.33A45.25,45.25,0,0,1,873.28,804l-.24.52c-5.72,12.47-10.49,26.43-21.7,34.35-10.57,7.47-24.44,7.78-37.38,7.81l-79.43.19c-8.24,0-16.58,0-24.58-1.94-7.19-1.77-13.88-5.09-20.51-8.39l-35.55-17.67c-14.31-7.11-30-14.43-45.66-11.16-16,3.34-27.53,16.79-41.47,25.27-21.63,13.17-50.39,13.69-72.48,1.29-10.58-5.94-19.77-14.6-31.31-18.33-19.06-6.17-39.31,2.37-58.92,6.46-38.15,7.95-83.14-2.94-112.38-29.27C254,759.2,298.25,717.93,338.87,720.59Z"
            transform="translate(-176.17 -53.14)" fill="#f0e4e4" />

        <path
            d="M428.15,103.66c-2,0-4.25,0-5.79.1a8.17,8.17,0,0,0-2,.35L410,107.24c8.37.18,17.09.12,25.65.07l48.06-.31c4.9,0,10.05-.07,14.14-.32,2.74-.16,4.76-.41,7.28-.6,9.1-.68,22.36-.55,34.21-.52s26.15-.23,30.32-1.23H544.23c-2.74,0-5.62,0-8-.12-2.83-.14-4.55-.4-7-.58-4.11-.3-9.79-.33-15.07-.35C485.09,103.21,456.46,103.78,428.15,103.66Z"
            transform="translate(-176.17 -53.14)" fill="#f4f4f4" />
        <path
            d="M450.15,195.66c-2,0-4.25,0-5.79.1a8.17,8.17,0,0,0-2,.35L432,199.24c8.37.18,17.09.12,25.65.07l48.06-.31c4.9,0,10.05-.07,14.14-.32,2.74-.16,4.76-.41,7.28-.6,9.1-.68,22.36-.55,34.21-.52s26.15-.23,30.32-1.23H566.23c-2.74,0-5.62,0-8-.12-2.83-.14-4.55-.4-7-.58-4.11-.3-9.79-.33-15.07-.35C507.09,195.21,478.46,195.78,450.15,195.66Z"
            transform="translate(-176.17 -53.14)" fill="#f4f4f4" />
    </g>

    <!-- KOBIETA -->
    <g id="couple__woman" class="couple__woman">
        <path d="M689.16,715.1l1.28,24.4-1.28,19.26s-6.42,24.4,9,26.33,12.84-25,12.84-25V733.73L709.06,726l-1.93-14.13Z"
            transform="translate(-176.17 -53.14)" fill="#333" />
        <path d="M774.56,712.54l-1.28,24.4,1.28,19.26s6.42,24.4-9,26.33-12.84-25-12.84-25V731.16l1.93-7.71,1.93-14.13Z"
            transform="translate(-176.17 -53.14)" fill="#333" />
        <path
            d="M823.68,490.35l-4.33,36v6.94a37.08,37.08,0,0,1-13.25,28.22c-4.5,3.85-9.13,6.06-12,2.72-7.22-8.35,3.61-40.46,12.27-44.31L810,487.78Z"
            transform="translate(-176.17 -53.14)" fill="#fdb797" />
        <path
            d="M694.93,489.71s-14.77,16.7-3.21,76.42l3.21,59.72L687.23,719,707.78,717l15.41-80.27s5.78-17.34,7.71-24.4,11.56-64.86,11.56-64.86l5.14,68.07s.64,14.77,3.85,19.26l3.85,79,19.26,1.28s7.71-50.73,7.71-89.9S802.17,552,802.17,552s8.35-28.25-4.5-53.3S694.93,489.71,694.93,489.71Z"
            transform="translate(-176.17 -53.14)" fill="#3ad29f" />
        <g opacity="0.1">
            <path
                d="M738.6,547.5S729,605.3,727,612.36s-7.71,24.4-7.71,24.4L703.92,717l-16.67,1.56,0,.36L707.78,717l15.41-80.27s5.78-17.34,7.71-24.4c1.27-4.66,5.9-31.41,8.9-49.07Z"
                transform="translate(-176.17 -53.14)" />
            <path
                d="M797.68,498.7c-5.81-11.33-27.38-14.25-49.26-14,20.51.18,39.94,3.39,45.41,14,12.84,25,4.5,53.3,4.5,53.3s-19.91,34-19.91,73.2c0,37.58-7.09,85.8-7.67,89.65l3.81.25s7.71-50.73,7.71-89.9S802.17,552,802.17,552,810.52,523.75,797.68,498.7Z"
                transform="translate(-176.17 -53.14)" />
        </g>
        <path d="M653.84,457.6l-36.6,34,16.05,21.19s7.06-3.85,7.71-11.56l30.82-34Z"
            transform="translate(-176.17 -53.14)" fill="#fdb797" />
        <path
            d="M743.1,332.39s6.42,16.05-9,17.34,19.91,43,19.91,43,32.75-7.06,37.89-21.19,3.85-19.91-3.85-26.33S768.14,342,768.14,342s-8.35-4.5-5.78-11.56S743.1,332.39,743.1,332.39Z"
            transform="translate(-176.17 -53.14)" fill="#fdb797" />
        <path
            d="M755.94,351.65s-12.2,1.93-16.05-5.14c0,0-9.63,8.35-25,5.14s-28.9,56.51-28.9,56.51l-35.32,50.73L668,475.58s12.84-6.42,25.69-27.61,16.7-30.82,16.7-30.82l-10.92,33.39-1.93,25s-14.13,12.84-1.93,35.32c0,0,10.92,10.92,31.47-5.14l25-4.5s17.34,20.55,27,19.91,19.26-3.85,23.12-14.13-2.57-56.51-2.57-56.51h3.85L805.38,500s21.83-1.28,23.76-9.63-6.42-119.44-6.42-119.44-18-21.83-29.54-27.61S772,370.91,772,370.91L757.22,384.4Z"
            transform="translate(-176.17 -53.14)" opacity="0.1" />
        <path
            d="M756.58,349.72s-8.67,1.61-12.52-5.46c0,0-13.16,8.67-28.58,5.46s-28.9,56.51-28.9,56.51L651.27,457l17.34,16.7s12.84-6.42,25.69-27.61S711,415.22,711,415.22l-10.92,33.39-1.93,25S684,486.5,696.22,509c0,0,10.92,10.92,31.47-5.14l25-4.5s17.34,20.55,27,19.91,19.26-3.85,23.12-14.13-2.57-56.51-2.57-56.51h3.85L806,498.06s21.83-1.28,23.76-9.63S823.36,369,823.36,369s-18-21.83-29.54-27.61S772.63,369,772.63,369l-14.77,13.49Z"
            transform="translate(-176.17 -53.14)" opacity="0.1" />
        <path
            d="M755.94,350.37s-8.67,1.61-12.52-5.46c0,0-13.16,8.67-28.58,5.46s-28.9,56.51-28.9,56.51L650.63,457.6,668,474.3s12.84-6.42,25.69-27.61,16.7-30.82,16.7-30.82l-10.92,33.39-1.93,25s-14.13,12.84-1.93,35.32c0,0,10.92,10.92,31.47-5.14l25-4.5s17.34,20.55,27,19.91,19.26-3.85,23.12-14.13-2.57-56.51-2.57-56.51h3.85l1.93,49.45s21.83-1.28,23.76-9.63-6.42-119.44-6.42-119.44-18-21.83-29.54-27.61S772,369.63,772,369.63l-14.77,13.49Z"
            transform="translate(-176.17 -53.14)" fill="#252a62" />
        <path d="M715.8,396.92s-1.93,26.33,3.85,34.68" transform="translate(-176.17 -53.14)" opacity="0.1" />
        <path d="M794.79,400.13s8.35,25.69,3.21,43.67" transform="translate(-176.17 -53.14)" opacity="0.1" />
        <path d="M685.94,408.16s10,21.51,13.81,21.51" transform="translate(-176.17 -53.14)" opacity="0.1" />
        <path
            d="M763,331.1c2.57-7.06-19.26,1.93-19.26,1.93a20.45,20.45,0,0,1,1.23,8.7A31.48,31.48,0,0,0,765.32,340C763.39,337.94,761.62,334.89,763,331.1Z"
            transform="translate(-176.17 -53.14)" opacity="0.1" />
        <ellipse cx="577.67" cy="256.12" rx="32.08" ry="32.75" fill="#fdb797" />
        <path
            d="M741.42,291.12c5.65,1.13,11.73,3.66,13.29,8.4.74,2.26.35,4.8,1.74,6.83a13.64,13.64,0,0,0,3.32,2.93c5.27,3.9,9.32,9.83,7.72,15.61-1.18,4.27-5.23,7.69-6.22,12-1.18,5.12,2.17,10.11,5.05,14.73s5.43,10.18,2.77,14.89c-1.26,2.23-3.6,4-4.31,6.41-1.38,4.66,3.87,8.74,8.79,11.12a93,93,0,0,0,18.57,6.64c3.33.81,6.77,1.46,9.75,3,1.9,1,3.54,2.25,5.4,3.26a22,22,0,0,0,16.16,1.65l-5.11-7.25a27.11,27.11,0,0,0,17.24-.58,14.82,14.82,0,0,1-8.78-10,26.79,26.79,0,0,0,13.75-8.28c1.88-2.2,3.28-5.17,1.8-7.58s-4.69-3-7.43-4.14c-6.2-2.49-10.65-7.87-11.32-13.66-.45-3.92.59-8.29-2.07-11.52-1.15-1.4-2.87-2.38-4.3-3.59-3.05-2.58-4.67-6.12-6.07-9.57a146,146,0,0,1-8.65-30.31c-.79-4.64-1.38-9.4-3.7-13.66-5.34-9.8-18.54-14.68-31.09-16.44-4.95-.69-10.09-1-14.93.1a38,38,0,0,0-11.85,5.47c-5.8,3.73-13.08,9.11-15.18,15.31C723.37,289.9,735.82,290,741.42,291.12Z"
            transform="translate(-176.17 -53.14)" opacity="0.1" />
        <path
            d="M742.06,290.48c5.65,1.13,11.73,3.66,13.29,8.4.74,2.26.35,4.8,1.74,6.83a13.64,13.64,0,0,0,3.32,2.93c5.27,3.9,9.32,9.83,7.72,15.61-1.18,4.27-5.23,7.69-6.22,12-1.18,5.12,2.17,10.11,5.05,14.73s5.43,10.18,2.77,14.89c-1.26,2.23-3.6,4-4.31,6.41-1.38,4.66,3.87,8.74,8.79,11.12A93,93,0,0,0,792.77,390c3.33.81,6.77,1.46,9.75,3,1.9,1,3.54,2.25,5.4,3.26a22,22,0,0,0,16.16,1.65L819,390.66a27.11,27.11,0,0,0,17.24-.58,14.82,14.82,0,0,1-8.78-10,26.79,26.79,0,0,0,13.75-8.28c1.88-2.2,3.28-5.17,1.8-7.58s-4.69-3-7.43-4.14c-6.2-2.49-10.65-7.87-11.32-13.66-.45-3.92.59-8.29-2.07-11.52-1.15-1.4-2.87-2.38-4.3-3.59-3.05-2.58-4.67-6.12-6.07-9.57a146,146,0,0,1-8.65-30.31c-.79-4.64-1.38-9.4-3.7-13.66-5.34-9.8-18.54-14.68-31.09-16.44-4.95-.69-10.09-1-14.93.1a38,38,0,0,0-11.85,5.47c-5.8,3.73-13.08,9.11-15.18,15.31C724,289.26,736.46,289.36,742.06,290.48Z"
            transform="translate(-176.17 -53.14)" fill="#f55f44" />
    </g>
    <!-- END OF KOBIETA -->
    <g id="couple__man" class="couple__man">
        <path
            d="M440.64,720.88l-3.21,20.55s-32.75,41.1-23.12,46.88,24.4,8.35,38.53-13.49a35.36,35.36,0,0,1,9-13.49h0a13.25,13.25,0,0,0,4.46-11.29l-3.17-31.74Z"
            transform="translate(-176.17 -53.14)" fill="#333" />
        <path
            d="M510.64,720.88l-3.21,20.55s-32.75,41.1-23.12,46.88,24.4,8.35,38.53-13.49a35.36,35.36,0,0,1,9-13.49h0a13.25,13.25,0,0,0,4.46-11.29l-3.17-31.74Z"
            transform="translate(-176.17 -53.14)" fill="#333" />
        <path
            d="M404.68,505.76l11.56,57.15,9.63,41.74L436.15,726H467s-6.42-20.55-2.57-37.89S467,632.91,467,632.91l7.71-69.35s11.56,69.35,16.7,75.13l13.49,84.12L536.32,726s2.57-69.35-6.42-89.26c0,0-3.85-36,0-59.08s2.57-83.48,2.57-83.48Z"
            transform="translate(-176.17 -53.14)" fill="#535461" />
        <g opacity="0.1">
            <path
                d="M467,632.59l6.45-58c-1.2-6.8-2-11.31-2-11.31l-7.71,69.35s1.28,37.89-2.57,55.22,2.57,37.89,2.57,37.89H467s-6.42-20.55-2.57-37.89S467,632.59,467,632.59Z"
                transform="translate(-176.17 -53.14)" />
            <path
                d="M529.9,636.44s-3.85-36,0-59.08,2.57-83.48,2.57-83.48l-3.2.29c.09,4.46,1.13,61-2.57,83.19-3.85,23.12,0,59.08,0,59.08,8.64,19.12,6.61,83.87,6.43,88.93l3.2.33S538.89,656.35,529.9,636.44Z"
                transform="translate(-176.17 -53.14)" />
        </g>
        <path
            d="M454.77,284.87s2.57,39.81-12.2,44.31c0,0-3.85,27.61,19.26,33.39s36.6-41.1,36.6-41.1l-5.14-1.93s-7.71-18-5.14-25Z"
            transform="translate(-176.17 -53.14)" fill="#fda57d" />
        <path
            d="M594.12,475.58s10.27,5.14,9.63,18.62S605.68,527,605.68,527s3.85,3.85,6.42-9c0,0,3.53,6.74,6.74,8s21.19,0,17.34-12.84c0,0-11.24-16.37-13.81-27.29l-12.84-18.62Z"
            transform="translate(-176.17 -53.14)" fill="#fda57d" />
        <path d="M438.72,330.46l21.83,24.4,45-27L531.19,503.2a5.12,5.12,0,0,1,0,7.06s-71.92,25-114.94,1.28Z"
            transform="translate(-176.17 -53.14)" opacity="0.1" />
        <path d="M438.72,332.39l21.83,24.4,45-27,25.69,175.31a5.12,5.12,0,0,1,0,7.06s-71.92,25-114.94,1.28Z"
            transform="translate(-176.17 -53.14)" opacity="0.1" />
        <path d="M438.72,331.1l21.83,24.4,45-27,25.69,175.31a5.12,5.12,0,0,1,0,7.06s-71.92,25-114.94,1.28Z"
            transform="translate(-176.17 -53.14)" fill="#e0e0e0" />
        <path
            d="M410.46,336.24s29.54-10.92,39.17-15.41c0,0-14.13,180.44-7.06,197.78,0,0-28.25-5.78-32.11-10.92,0,0,8.35-43.67,0-134.21Z"
            transform="translate(-176.17 -53.14)" opacity="0.1" />
        <path
            d="M409.82,335.6s29.54-10.92,39.17-15.41c0,0-14.13,180.44-7.06,197.78,0,0-28.25-5.78-32.11-10.92,0,0,8.35-43.67,0-134.21Z"
            transform="translate(-176.17 -53.14)" fill="#4d8af0" />
        <path d="M392.48,476.87l3.21,27.61s7.71,24.4,12.84,25.69,19.26-10.92,19.26-10.92l-18-22.48L406,464Z"
            transform="translate(-176.17 -53.14)" fill="#fda57d" />
        <path
            d="M614,474.3s-16.7,4.5-21.83,12.2l-19.26-12.2,8.35-6.42s-21.83-28.25-23.76-37.24c0,0-20.55-20.55-21.83-32.75,0,0-5.14.64-6.42,19.26s-1.93,33.39,2.57,47.52,3.85,34,3.21,36.6-20.55,21.83-52,24.4l-3.85-188.79,15.72-18.32s15.1,10.61,40.79,15.11c0,0,6.42,5.14,10.92,15.41s0,1.93,0,1.93l30.18,58.44,32.75,48.8,8.35-1.93Z"
            transform="translate(-176.17 -53.14)" opacity="0.1" />
        <path d="M406,464.67l-13.49,12.84.51,4.38c3.72-2.44,10-3.3,14.58-3.59Z" transform="translate(-176.17 -53.14)"
            opacity="0.1" />
        <path
            d="M614.67,473.66s-16.7,4.5-21.83,12.2l-19.26-12.2,8.35-6.42S560.08,439,558.16,430c0,0-20.55-20.55-21.83-32.75,0,0-5.14.64-6.42,19.26S528,449.9,532.47,464s3.85,34,3.21,36.6-20.55,21.83-52,24.4l-3.85-188.79,15.72-18.32s15.1,10.61,40.79,15.11c0,0,6.42,5.14,10.92,15.41s0,1.93,0,1.93l30.18,58.44,32.75,48.8,8.35-1.93Z"
            transform="translate(-176.17 -53.14)" fill="#4d8af0" />
        <path d="M453.81,310.23s-17.66,8-15.73,18.94l10.05,3.05Z" transform="translate(-176.17 -53.14)" opacity="0.1" />
        <path d="M453.81,309.59s-17.66,8-15.73,18.94l10.05,3.05Z" transform="translate(-176.17 -53.14)"
            fill="#3a68b4" />
        <polygon points="310.39 276.35 324.2 283.74 324.2 267.68 315.83 263.76 310.39 276.35" opacity="0.1" />
        <polygon points="310.39 275.71 324.2 283.1 324.2 267.04 315.83 263.11 310.39 275.71" fill="#3a68b4" />
        <path
            d="M413,477.51s-22.48-.64-23.12,8.35c0,0-10.27-22.48-5.14-43s9-84.76,9-84.76,1.28-22.48,22.48-26.33,0,64.86,0,64.86l-5.78,46.88v16.7l3.85.64Z"
            transform="translate(-176.17 -53.14)" fill="#4d8af0" />
        <polygon points="233.34 476.06 252.6 465.79 258.38 469.64 235.26 484.41 233.34 476.06" opacity="0.1" />
        <polygon points="232.69 475.42 251.96 465.14 257.74 469 234.62 483.76 232.69 475.42" fill="#3e3f49" />
        <polygon points="356.63 476.06 337.36 465.79 331.58 469.64 354.7 484.41 356.63 476.06" opacity="0.1" />
        <polygon points="357.27 475.42 338 465.14 332.23 469 355.34 483.76 357.27 475.42" fill="#3e3f49" />
        <path
            d="M454.77,285.51s.2,3.09.17,7.65a31.83,31.83,0,0,0,26,13.54,31.52,31.52,0,0,0,7.65-.94c-.91-4.05-1.34-8.05-.4-10.61Z"
            transform="translate(-176.17 -53.14)" opacity="0.1" />
        <ellipse cx="304.75" cy="220.16" rx="32.08" ry="32.75" fill="#fda57d" />
        <polygon points="405.43 413.77 433.45 403.63 433.69 404.14 406.07 414.41 405.43 413.77" opacity="0.1" />
        <path d="M383.94,464l26.52-4.66-.32.48s-26.58,4.59-25.81,6.79Z" transform="translate(-176.17 -53.14)"
            opacity="0.1" />
        <path d="M413.35,375.09s-1.93,31.47,2.57,40.46" transform="translate(-176.17 -53.14)" fill="#4d8af0" />
        <g opacity="0.1">
            <path
                d="M546.6,350.37l30.18,58.44,32.75,48.8.56-.13L577.42,408.8l-29.27-56.68C549.73,356.17,546.6,350.37,546.6,350.37Z"
                transform="translate(-176.17 -53.14)" />
            <path d="M617.84,455.83,614,473.66s-16.28,4.39-21.63,11.92l.44.28c5.14-7.71,21.83-12.2,21.83-12.2l3.85-18Z"
                transform="translate(-176.17 -53.14)" />
            <path
                d="M535.68,333s6.42,5.14,10.92,15.41c.62,1.42,1.07,2.48,1.38,3.26,1.05,1.85,2.52,4.19-.74-3.26-4.5-10.27-10.92-15.41-10.92-15.41-25.69-4.5-40.79-15.11-40.79-15.11l-.24.27C497.86,319.88,512.44,329,535.68,333Z"
                transform="translate(-176.17 -53.14)" />
            <path
                d="M529.9,416.51c1-14.69,4.42-18.19,5.82-19,0-.08,0-.17,0-.25s-5.14.64-6.42,19.26-1.93,33.39,2.57,47.52,3.85,34,3.21,36.6S514.76,522.19,483.67,525V525c31.47-2.57,51.37-21.83,52-24.4s1.28-22.48-3.21-36.6S528.62,435.13,529.9,416.51Z"
                transform="translate(-176.17 -53.14)" />
        </g>
        <path d="M520.59,362.89s13.49,28.9,12.84,30.18" transform="translate(-176.17 -53.14)" opacity="0.1" />
        <path d="M511.6,452.79c1.93-.64,15.56-10,17.73-18.15" transform="translate(-176.17 -53.14)" opacity="0.1" />
        <path d="M511.6,461.78c1.93-.64,15.56-10,17.73-18.15" transform="translate(-176.17 -53.14)" opacity="0.1" />
        <circle cx="310.39" cy="309.74" r="1.93" fill="#fff" />
        <circle cx="310.39" cy="338.64" r="1.93" fill="#fff" />
        <circle cx="310.39" cy="321.3" r="1.93" fill="#fff" />
        <circle cx="311.04" cy="355.98" r="1.93" fill="#fff" />
        <circle cx="311.04" cy="384.87" r="1.93" fill="#fff" />
        <circle cx="311.04" cy="367.54" r="1.93" fill="#fff" />
        <circle cx="311.68" cy="402.21" r="1.93" fill="#fff" />
        <circle cx="311.68" cy="431.11" r="1.93" fill="#fff" />
        <circle cx="311.68" cy="413.77" r="1.93" fill="#fff" />
        <path
            d="M498.92,270a21.14,21.14,0,0,0,12.1,1.53,8.18,8.18,0,0,0,3.65-1.16c3.36-2.34,2.5-8,5.51-10.72,1.38-1.26,3.41-1.76,4.5-3.28a7.39,7.39,0,0,0,1.05-3.24c.76-4.86,1-10.71-2.9-13.74-4.57-3.58-11.34-.62-17-2-2.41-.58-4.54-2-6.75-3.08-9-4.57-19.35-5.26-29.41-5.26-5,0-10.16.16-15,1.55s-9.49,4.12-12.26,8.34a27.51,27.51,0,0,0-3.19,7.68,87.22,87.22,0,0,0-2.81,32.92c.44,4.15,1.35,8.59,4.45,11.38a13.16,13.16,0,0,0,7.24,3c3.69.46,8.23-.65,9.38-4.18.95-2.91-.52-7,2.06-8.6a5.77,5.77,0,0,1,3.52-.5l9.86.68c1.39.1,2.92.15,4-.72a5.08,5.08,0,0,0,1.5-3.57c.43-4.06-1.83-17.65,3.9-18.23S494.24,267.71,498.92,270Z"
            transform="translate(-176.17 -53.14)" opacity="0.1" />
        <path
            d="M498.28,269.37a21.14,21.14,0,0,0,12.1,1.53,8.18,8.18,0,0,0,3.65-1.16c3.36-2.34,2.5-8,5.51-10.72,1.38-1.26,3.41-1.76,4.5-3.28a7.39,7.39,0,0,0,1.05-3.24c.76-4.86,1-10.71-2.9-13.74-4.57-3.58-11.34-.62-17-2-2.41-.58-4.54-2-6.75-3.08-9-4.57-19.35-5.26-29.41-5.26-5,0-10.16.16-15,1.55s-9.49,4.12-12.26,8.34a27.51,27.51,0,0,0-3.19,7.68,87.22,87.22,0,0,0-2.81,32.92c.44,4.15,1.35,8.59,4.45,11.38a13.16,13.16,0,0,0,7.24,3c3.69.46,8.23-.65,9.38-4.18.95-2.91-.52-7,2.06-8.6a5.77,5.77,0,0,1,3.52-.5l9.86.68c1.39.1,2.92.15,4-.72a5.08,5.08,0,0,0,1.5-3.57c.43-4.06-1.83-17.65,3.9-18.23S493.6,267.07,498.28,269.37Z"
            transform="translate(-176.17 -53.14)" fill="#72351c" />
    </g>

</svg>