<svg xmlns="http://www.w3.org/2000/svg" viewBox="0 0 210.282 51.998">
  <g id="Border_elements_6770" transform="translate(-110.859 -315.155)">
    <g id="Group_2" data-name="Group 2">
      <path id="Path_1" data-name="Path 1" d="M304.9,329.9a4.694,4.694,0,0,1,3.8-3.1,3.049,3.049,0,0,1,3.6,2.1,1.72,1.72,0,0,1-.1,1.4,5.393,5.393,0,0,1-3.5,2.7c-4.2,1.3-8.4-2.3-9.4-5.8a9.223,9.223,0,0,1,7.2-11.8,12.08,12.08,0,0,1,10.6,3,10.783,10.783,0,0,1,3.9,6.7,16.138,16.138,0,0,1-.4,6.2,26.328,26.328,0,0,1-10.9,15.4c-.2.2-.5.3-.9.6a3.444,3.444,0,0,0,.9.1,14.792,14.792,0,0,1,5.8,1.6,8.479,8.479,0,0,1,4.5,8.9,8.83,8.83,0,0,1-11.5,6.7,6.15,6.15,0,0,1-1.9-1.2,3.251,3.251,0,0,1-.4-4.4,4.69,4.69,0,0,1,6.3-1,4.506,4.506,0,0,1,1.7,3.2,9.325,9.325,0,0,0,1-1,5.3,5.3,0,0,0-1.7-7.9,14.668,14.668,0,0,0-8.2-1.7c-2.8.3-5.6.6-8.5.8a33.292,33.292,0,0,1-12.9-1.7,64.948,64.948,0,0,1-12.7-6.2c-2.7-1.7-5.5-3.3-8.3-4.8a25.3,25.3,0,0,0-8.1-2.9c-5.3-.9-10.2.1-14.3,3.8a34.4,34.4,0,0,0-3,3.5c-.5.6-.9,1.4-1.4,2a1.106,1.106,0,0,1-1.2.5c-.5-.2-.6-.6-.6-1.1a2.537,2.537,0,0,1,.2-1.2c1.3-3.3,3-6.4,6-8.6a21.285,21.285,0,0,1,9.9-3.9c4.8-.6,9.3.6,13.7,2.4a70.063,70.063,0,0,1,10.4,5.7c2.2,1.4,4.4,2.7,6.6,4a27.261,27.261,0,0,0,9.5,3.5c5.7.9,11.2.5,16.2-2.6a22.346,22.346,0,0,0,10.6-15.4,7.722,7.722,0,0,0-3.7-8.6,8.57,8.57,0,0,0-5.6-1.6,3.56,3.56,0,0,0-2.8,1.6,8.625,8.625,0,0,0-1.6,4.1,13.5,13.5,0,0,0,.1,4A2.191,2.191,0,0,0,304.9,329.9Z" fill="#f74d4d"/>
      <path id="Path_2" data-name="Path 2" d="M215.5,334.4c7.6-15.4,15.7-12.6,16.8-6.4,1.3,7.1-11.8,26.5-14.4,24.5-.1,0-22.5-10.7-18-22.7a5.182,5.182,0,0,1,3.5-3.4C208.4,324.9,212.6,330.5,215.5,334.4Z" fill="#f74d4d"/>
      <path id="Path_3" data-name="Path 3" d="M250.7,343.8a12.913,12.913,0,0,0-8.4,3,18.957,18.957,0,0,0-2.1,1.9c-.6.5-1,.6-1.4.3s-.3-.7.1-1.4a27.463,27.463,0,0,1,4.6-5.6,13.8,13.8,0,0,1,7.2-3.4,3.617,3.617,0,0,1,2.8.7,2.415,2.415,0,0,1,1.3,2.5,2.8,2.8,0,0,1-2.4,2Z" fill="#f74d4d"/>
      <g id="Group_1" data-name="Group 1">
        <path id="Path_4" data-name="Path 4" d="M127.1,332a4.694,4.694,0,0,0-3.8-3.1,3.049,3.049,0,0,0-3.6,2.1,1.72,1.72,0,0,0,.1,1.4,5.393,5.393,0,0,0,3.5,2.7c4.2,1.3,8.4-2.3,9.4-5.8a9.223,9.223,0,0,0-7.2-11.8,12.08,12.08,0,0,0-10.6,3,10.783,10.783,0,0,0-3.9,6.7,16.138,16.138,0,0,0,.4,6.2,26.328,26.328,0,0,0,10.9,15.4c.2.2.5.3.9.6a3.444,3.444,0,0,1-.9.1,14.792,14.792,0,0,0-5.8,1.6A8.479,8.479,0,0,0,112,360a8.83,8.83,0,0,0,11.5,6.7,6.15,6.15,0,0,0,1.9-1.2,3.251,3.251,0,0,0,.4-4.4,4.69,4.69,0,0,0-6.3-1,4.506,4.506,0,0,0-1.7,3.2,9.322,9.322,0,0,1-1-1,5.3,5.3,0,0,1,1.7-7.9,14.668,14.668,0,0,1,8.2-1.7c2.8.3,5.6.6,8.5.8a33.293,33.293,0,0,0,12.9-1.7,64.948,64.948,0,0,0,12.7-6.2c2.7-1.7,5.5-3.3,8.3-4.8a25.3,25.3,0,0,1,8.1-2.9c5.3-.9,10.2.1,14.3,3.8a34.4,34.4,0,0,1,3,3.5c.5.6.9,1.4,1.4,2a1.106,1.106,0,0,0,1.2.5c.5-.2.6-.6.6-1.1a2.537,2.537,0,0,0-.2-1.2c-1.3-3.3-3-6.4-6-8.6a21.285,21.285,0,0,0-9.9-3.9c-4.8-.6-9.3.6-13.7,2.4a70.064,70.064,0,0,0-10.4,5.7c-2.2,1.4-4.4,2.7-6.6,4a27.261,27.261,0,0,1-9.5,3.5c-5.7.9-11.2.5-16.2-2.6a22.346,22.346,0,0,1-10.6-15.4,7.722,7.722,0,0,1,3.7-8.6,8.569,8.569,0,0,1,5.6-1.6,3.56,3.56,0,0,1,2.8,1.6,8.625,8.625,0,0,1,1.6,4.1,13.5,13.5,0,0,1-.1,4A2.191,2.191,0,0,1,127.1,332Z" fill="#f74d4d"/>
        <path id="Path_5" data-name="Path 5" d="M181.3,345.9a12.913,12.913,0,0,1,8.4,3,18.957,18.957,0,0,1,2.1,1.9c.6.5,1,.6,1.4.3s.3-.7-.1-1.4a27.463,27.463,0,0,0-4.6-5.6,13.8,13.8,0,0,0-7.2-3.4,3.617,3.617,0,0,0-2.8.7,2.415,2.415,0,0,0-1.3,2.5,2.8,2.8,0,0,0,2.4,2Z " fill="#f74d4d"/>
      </g>
    </g>
  </g>
</svg>
